<svg width="798" height="421" viewBox="0 0 798 421" fill="none" xmlns="http://www.w3.org/2000/svg">
<rect width="797.419" height="420" transform="translate(0.209473 0.166016)" fill="#2F2F2F"/>
<path d="M322.531 213.321L339.568 229.906" stroke="#D44527" stroke-width="2" stroke-miterlimit="10"/>
<path d="M315.506 229.906H308.628C308.649 221.922 311.917 214.271 317.717 208.625C323.517 202.979 331.377 199.799 339.58 199.778V206.529C333.205 206.529 327.09 208.99 322.577 213.373C318.064 217.755 315.521 223.701 315.506 229.906ZM349.897 207.79C350.378 205.558 352.19 204.297 356.122 204.297C360.902 204.297 362.575 206.339 362.575 209.877V210.457L352.533 211.327C345.357 211.963 340.76 215.11 340.76 220.935C340.76 227.63 345.953 230.822 352.224 230.822C357.898 230.822 360.776 228.791 362.541 226.458V229.951H369.958V209.865C370.103 207.325 369.288 204.82 367.665 202.824C365.373 200.146 361.211 198.807 356.133 198.807C347.937 198.807 343.214 202.356 342.262 207.823L349.897 207.79ZM353.37 225.209C350.264 225.209 348.108 223.747 348.108 220.846C348.108 218.223 350.023 216.706 352.774 216.483L362.518 215.601V216.773C362.518 222.341 358.449 225.209 353.37 225.209ZM398.869 229.862H406.286V189.166H398.869V203.427C397.081 200.805 393.905 198.774 389.125 198.774C379.862 198.774 374.658 206.049 374.658 214.775C374.658 223.501 379.862 230.788 389.125 230.788C393.905 230.788 397.081 228.757 398.869 226.135V229.862ZM399.167 214.731C399.167 220.846 395.579 224.919 390.627 224.919C385.296 224.919 382.075 221.136 382.075 214.731C382.075 208.326 385.296 204.543 390.627 204.543C395.579 204.587 399.167 208.66 399.167 214.775V214.731ZM413.107 195.526H420.523V189.166H413.107V195.526ZM413.107 229.862H420.523V199.644H413.107V229.862ZM448.563 229.862H455.98V199.644H448.563V216.282C448.563 221.861 445.388 224.718 440.906 224.718C436.423 224.718 434.452 222.386 434.452 218.022V199.644H427.035V218.614C427.035 226.425 431.62 230.833 439.117 230.833C443.301 230.833 446.763 229.382 448.563 226.47V229.862ZM475.468 218.212C478.907 218.614 481.2 219.027 481.2 221.816C481.2 224.048 479.171 225.599 474.872 225.599C470.802 225.599 468.475 224.26 468.349 221.136H460.818C461.058 226.838 466.32 230.732 474.872 230.732C483.424 230.732 488.628 226.949 488.628 221.136C488.628 213.972 482.954 211.941 476.672 211.238L474.585 211.004C470.997 210.602 468.854 209.609 468.854 207.221C468.854 205.536 470.401 203.873 474.769 203.873C478.655 203.873 480.501 205.558 480.569 207.768H488.044C487.688 203.304 483.458 198.751 474.895 198.751C466.584 198.751 461.437 202.356 461.437 207.89C461.437 214.407 466.813 217.197 473.393 217.933L475.468 218.212Z" fill="white"/>
</svg>
